<svg id="Layer_1" data-name="Layer 1" xmlns="http://www.w3.org/2000/svg" viewBox="0 0 50 50"><defs><style>.cls-1{fill:none;}.cls-2{fill:#f6a81c;}.cls-3{fill:#fefefe;}</style></defs><title>rotary_loader</title><path class="cls-1" d="M29.82,25A4.85,4.85,0,1,0,25,29.87,4.88,4.88,0,0,0,29.82,25ZM20.6,25A4.37,4.37,0,1,1,25,29.41,4.36,4.36,0,0,1,20.6,25Z"/><path class="cls-1" d="M27.52,38.62a15.17,15.17,0,0,0,8-4.57c.4-.43.35-.7-.18-1l-.08,0-5-2.41c-.6-.29-1.19-.59-1.8-.87a.66.66,0,0,0-1,.57c0,.13,0,.26,0,.39l-.26,3.59-.26,3.56c0,.1,0,.17,0,.24C26.9,38.56,27.09,38.72,27.52,38.62Z"/><path class="cls-1" d="M25.91,22.31a.24.24,0,0,1-.2-.26c0-.17,0-.35,0-.53H24.23a2.83,2.83,0,0,0,0,.42.41.41,0,0,1-.31.47A2.84,2.84,0,0,0,22.29,26a2.89,2.89,0,0,0,3.41,1.91,2.92,2.92,0,0,0,2.22-2.64A2.88,2.88,0,0,0,25.91,22.31Z"/><path class="cls-1" d="M14.47,16.8l.2.11,3.84,1.87,2.92,1.42c.62.3,1,.06,1.1-.61.09-1.13.17-2.25.25-3.38.1-1.37.2-2.75.3-4.16,0,0,0-.11,0-.18,0-.42-.2-.57-.62-.5l-.16,0a15.07,15.07,0,0,0-7.08,3.79,11.83,11.83,0,0,0-.9.94C14.11,16.39,14.17,16.61,14.47,16.8Z"/><path class="cls-1" d="M11.91,20.31a1.67,1.67,0,0,0-.07.2A15.07,15.07,0,0,0,11.46,28c.13.59.28,1.17.45,1.75.1.34.33.43.65.28a2.22,2.22,0,0,0,.34-.2l3.38-2.3L19,25.66a.88.88,0,0,0,.45-.65,2.35,2.35,0,0,0-.21-.4,1.35,1.35,0,0,0-.32-.27l-4.72-3.22c-.53-.36-1-.72-1.58-1.06C12.29,19.86,12.07,19.94,11.91,20.31Z"/><path class="cls-1" d="M14.71,13a.55.55,0,0,0,.82.1l.23-.16a15.21,15.21,0,0,1,18.43,0,2.22,2.22,0,0,0,.37.23.51.51,0,0,0,.67-.12l2-2.25a1.25,1.25,0,0,0,.15-.28A1,1,0,0,0,37,9.8,20.31,20.31,0,0,0,33.5,7.62,19.17,19.17,0,0,0,14,9a14.2,14.2,0,0,0-1.24.95.52.52,0,0,0,0,.83Z"/><path class="cls-1" d="M17.49,36.6a15.38,15.38,0,0,0,5,2.09c.48.11.69,0,.69-.54v-.07q-.28-3.79-.56-7.58c0-.66-.5-.92-1.11-.63l-1.48.72-5.34,2.6c-.49.24-.53.5-.16.9A16.45,16.45,0,0,0,17.49,36.6Z"/><path class="cls-1" d="M41,14.11c-.52-.75-1.13-1.43-1.72-2.13a.55.55,0,0,0-.92,0l-.38.38L36.4,14a.66.66,0,0,0,0,1c.17.17.32.36.47.54a14,14,0,0,1,3.32,9.25,18.25,18.25,0,0,1-.32,3.3.67.67,0,0,0,.53.86l2.7.78c.47.14.72,0,.83-.5a22.66,22.66,0,0,0,.5-4.27c-.06-.75-.09-1.5-.17-2.25A18.51,18.51,0,0,0,41,14.11Z"/><path class="cls-1" d="M38.1,29.58A15.86,15.86,0,0,0,38.82,25a15.53,15.53,0,0,0-.67-4.43c-.2-.69-.44-.78-1-.38L31,24.35a.69.69,0,0,0,0,1.27l2.46,1.67c1.28.87,2.55,1.74,3.83,2.6C37.69,30.18,38,30.08,38.1,29.58Z"/><path class="cls-1" d="M42.67,31.35l-2.86-1a.52.52,0,0,0-.61.18,1.68,1.68,0,0,0-.21.38,15,15,0,0,1-3.57,5.13,14.85,14.85,0,0,1-12.59,4,15.2,15.2,0,0,1-11.92-9.29.59.59,0,0,0-.85-.39l-2.61.89c-.55.19-.65.41-.44.95A19,19,0,0,0,11.55,39a19.54,19.54,0,0,0,13.84,5.46c.63-.06,1.69-.11,2.73-.28A19.53,19.53,0,0,0,43,32.18C43.15,31.77,43,31.48,42.67,31.35Zm-4.81,4.1h0Z"/><path class="cls-1" d="M10.16,28.17c0-.24-.08-.47-.12-.71a15.6,15.6,0,0,1,.31-6.63A14,14,0,0,1,13.67,15a.64.64,0,0,0,0-.94L11.54,11.9a.45.45,0,0,0-.55-.1,1.18,1.18,0,0,0-.35.25c-.34.37-.68.75-1,1.14A19,19,0,0,0,5.63,25a19.61,19.61,0,0,0,.48,4.31.56.56,0,0,0,.8.47L9.65,29A.66.66,0,0,0,10.16,28.17Z"/><path class="cls-1" d="M35.35,15.75a14.75,14.75,0,0,0-6.52-4.08c-.5-.15-1-.28-1.39-.38s-.52.11-.53.36a6.33,6.33,0,0,0,0,.86q.19,2.79.4,5.58c0,.49.06,1,.1,1.46s.22.66.54.69a1.08,1.08,0,0,0,.53-.11l5.94-2.86c.35-.17.7-.33,1-.51A.43.43,0,0,0,35.6,16C35.53,15.93,35.43,15.84,35.35,15.75Z"/><path class="cls-2" d="M49.07,24a7.61,7.61,0,0,0-3.21-.85c-.23,0-.3-.07-.32-.3,0-.43-.11-.86-.16-1.24.63-.29,1.26-.53,1.83-.86a15.2,15.2,0,0,0,1.38-1,.34.34,0,0,0,.13-.41c-.12-.43-.23-.87-.37-1.29a.38.38,0,0,0-.25-.19,7.49,7.49,0,0,0-3.43,0c-.22,0-.31,0-.39-.21-.15-.4-.32-.79-.47-1.14a16.68,16.68,0,0,0,1.4-1.15c.45-.46.83-1,1.24-1.5a.27.27,0,0,0,0-.34l-.68-1.16a.31.31,0,0,0-.3-.16,7.76,7.76,0,0,0-3.48.9l-.13.07-.71-.93c-.25-.33-.25-.33,0-.65a7.73,7.73,0,0,0,1.62-2.9.31.31,0,0,0-.08-.35c-.32-.32-.63-.64-1-1a.38.38,0,0,0-.3-.07,7.36,7.36,0,0,0-3,1.68l-.17.16-.06,0L37,8.19a16.61,16.61,0,0,0,.65-1.73A16,16,0,0,0,38,4.54a.33.33,0,0,0-.13-.26c-.38-.24-.78-.47-1.17-.7a.33.33,0,0,0-.38,0A7.75,7.75,0,0,0,33.83,6l-.14.21-1.51-.63c.06-.35.12-.69.17-1a6.65,6.65,0,0,0-.14-2.65.39.39,0,0,0-.3-.33l-1.23-.32a.31.31,0,0,0-.34.12,7.53,7.53,0,0,0-1.75,3c-.06.19-.14.26-.34.22l-1.3-.18a15.2,15.2,0,0,0-.29-1.76A16.65,16.65,0,0,0,26,.83c0-.1-.15-.16-.22-.24H24.25A1.33,1.33,0,0,0,24,.82a7.66,7.66,0,0,0-.95,3.34l0,.25-1.57.2c-.19-.46-.35-.9-.55-1.33a7.07,7.07,0,0,0-1.31-1.91.35.35,0,0,0-.39-.11c-.42.12-.84.22-1.25.35a.38.38,0,0,0-.21.23,7.1,7.1,0,0,0,0,3.54c0,.16,0,.23-.15.29-.44.18-.88.37-1.34.57l-.12-.18A7.94,7.94,0,0,0,13.66,3.6a.32.32,0,0,0-.36,0c-.39.23-.78.44-1.16.68a.4.4,0,0,0-.15.3,7.39,7.39,0,0,0,.86,3.34l.11.21a.36.36,0,0,1,0,.07l-1.16.9c-.34-.27-.66-.54-1-.78A7.4,7.4,0,0,0,8.63,7.21a.4.4,0,0,0-.46.1c-.28.29-.57.57-.86.85a.39.39,0,0,0-.1.44,7.84,7.84,0,0,0,1.69,3l.17.19-1,1.31-.5-.24a7.82,7.82,0,0,0-3-.74.45.45,0,0,0-.5.24c-.19.36-.4.72-.61,1.07a.32.32,0,0,0,0,.36,7.82,7.82,0,0,0,2.31,2.38l.34.23c-.19.45-.37.9-.56,1.33,0,0-.16.08-.23.06A7.79,7.79,0,0,0,3,17.62a10.41,10.41,0,0,0-1.19.21.32.32,0,0,0-.2.18c-.14.47-.27.94-.38,1.41a.36.36,0,0,0,.12.27,7.66,7.66,0,0,0,3,1.74c.18.06.25.12.22.32-.07.44-.12.89-.18,1.31-.57.08-1.12.14-1.66.24a6.16,6.16,0,0,0-2,.74.38.38,0,0,0-.18.26c0,.46,0,.91,0,1.37A.34.34,0,0,0,.81,26a7.77,7.77,0,0,0,3.36.89h.16l.06,0c.07.5.14,1,.2,1.51,0,0-.1.14-.16.16A8.23,8.23,0,0,0,2,29.85a6.55,6.55,0,0,0-.61.53.36.36,0,0,0-.09.28c.1.45.22.89.33,1.33a.32.32,0,0,0,.27.24,7.7,7.7,0,0,0,3.5,0c.17,0,.25,0,.32.15.17.42.35.82.52,1.23-.35.26-.7.51-1,.78a6.83,6.83,0,0,0-1.6,1.85.41.41,0,0,0,0,.33c.2.39.42.76.63,1.14a.4.4,0,0,0,.42.2A7.7,7.7,0,0,0,8,37l.14-.06,1,1.28-.17.2a7.88,7.88,0,0,0-1.7,3,.38.38,0,0,0,.09.44c.29.29.58.58.87.87a.37.37,0,0,0,.42.1,7.88,7.88,0,0,0,3-1.72l.16-.15,1.27,1c-.21.53-.42,1-.6,1.55a7.41,7.41,0,0,0-.36,2,.38.38,0,0,0,.2.4l1.09.63a.36.36,0,0,0,.41,0,7.77,7.77,0,0,0,2.43-2.39l.17-.26,1.35.55c-.06.74-.16,1.45-.16,2.15a10,10,0,0,0,.22,1.6.34.34,0,0,0,.19.22c.43.14.88.25,1.31.38a.33.33,0,0,0,.36-.12,7.76,7.76,0,0,0,1.73-3l.07-.2,0,0,1.56.21c.08.53.13,1,.23,1.55a7.12,7.12,0,0,0,.74,2,.32.32,0,0,0,.3.21h1.35a.3.3,0,0,0,.28-.19,7.62,7.62,0,0,0,.94-3.42c0-.16.07-.21.21-.23l1.32-.18.1.3a7.55,7.55,0,0,0,1.76,2.95.31.31,0,0,0,.35.1c.42-.12.85-.22,1.28-.35a.39.39,0,0,0,.21-.23,6.77,6.77,0,0,0,0-3.54c0-.17,0-.24.15-.31.42-.17.84-.36,1.29-.55l.15.22a8.14,8.14,0,0,0,2.4,2.4.39.39,0,0,0,.47,0l1.14-.68a.28.28,0,0,0,.14-.29A7.89,7.89,0,0,0,37,42l-.09-.17,1.23-1,.55.47a7.89,7.89,0,0,0,2.67,1.42.31.31,0,0,0,.35-.08l.92-.92a.35.35,0,0,0,.08-.38A7.51,7.51,0,0,0,41,38.33l-.11-.12,1-1.3a7.6,7.6,0,0,0,2.2.82c.46.08.92.11,1.38.17a.29.29,0,0,0,.32-.17l.66-1.14a.33.33,0,0,0,0-.37A7.85,7.85,0,0,0,44,33.73l-.19-.13.57-1.4c.47.06.92.14,1.37.18a6.43,6.43,0,0,0,2.37-.2.38.38,0,0,0,.24-.21c.14-.43.25-.88.37-1.31.05-.19-.08-.3-.2-.41a7.73,7.73,0,0,0-2.85-1.66l-.29-.1c.06-.47.13-.93.18-1.39,0-.17.12-.15.23-.15a8.11,8.11,0,0,0,2.56-.54c.27-.11.52-.24.78-.36a.46.46,0,0,0,.3-.34v-1.3C49.39,24.2,49.24,24.1,49.07,24ZM12.79,10A14.2,14.2,0,0,1,14,9,19.17,19.17,0,0,1,33.5,7.62,20.31,20.31,0,0,1,37,9.8a1,1,0,0,1,.43.69,1.25,1.25,0,0,1-.15.28l-2,2.25a.51.51,0,0,1-.67.12,2.22,2.22,0,0,1-.37-.23,15.21,15.21,0,0,0-18.43,0l-.23.16a.55.55,0,0,1-.82-.1l-2-2.18A.52.52,0,0,1,12.79,10Zm1.42,11.15,4.72,3.22a1.35,1.35,0,0,1,.32.27,2.35,2.35,0,0,1,.21.4.88.88,0,0,1-.45.65l-2.73,1.86-3.38,2.3a2.22,2.22,0,0,1-.34.2c-.32.14-.55.06-.65-.28-.17-.58-.33-1.16-.45-1.75a15.07,15.07,0,0,1,.38-7.48,1.67,1.67,0,0,1,.07-.2c.16-.36.38-.45.72-.24C13.16,20.41,13.69,20.77,14.21,21.13Zm.12-5a11.83,11.83,0,0,1,.9-.94,15.07,15.07,0,0,1,7.08-3.79l.16,0c.41-.07.6.07.62.5,0,.07,0,.14,0,.18-.1,1.41-.2,2.78-.3,4.16-.08,1.13-.16,2.25-.25,3.38-.05.68-.48.91-1.1.61l-2.92-1.42-3.84-1.87-.2-.11C14.17,16.61,14.11,16.39,14.33,16.12Zm.39,17.09,5.34-2.6,1.48-.72c.61-.29,1.06,0,1.11.63q.28,3.79.56,7.58v.07c0,.49-.21.65-.69.54a15.38,15.38,0,0,1-5-2.09,16.45,16.45,0,0,1-2.93-2.5C14.19,33.7,14.24,33.44,14.73,33.21ZM20.12,25A4.85,4.85,0,1,1,25,29.87,4.87,4.87,0,0,1,20.12,25Zm7,9.29.26-3.59c0-.13,0-.26,0-.39a.66.66,0,0,1,1-.57c.6.28,1.2.58,1.8.87l5,2.41.08,0c.52.27.58.54.18,1a15.17,15.17,0,0,1-8,4.57c-.43.09-.62-.06-.62-.5,0-.07,0-.14,0-.24Zm6.27-7L31,25.61a.69.69,0,0,1,0-1.27l6.17-4.2c.59-.4.83-.31,1,.38A15.53,15.53,0,0,1,38.82,25a15.86,15.86,0,0,1-.72,4.63c-.15.49-.42.59-.86.3C36,29,34.7,28.15,33.42,27.29Zm2.05-10.53c-.34.19-.69.35-1,.51l-5.94,2.86a1.08,1.08,0,0,1-.53.11c-.31,0-.51-.3-.54-.69s-.07-1-.1-1.46q-.2-2.79-.4-5.58a6.33,6.33,0,0,1,0-.86c0-.25.18-.37.53-.36s.9.23,1.39.38a14.75,14.75,0,0,1,6.52,4.08c.09.09.18.17.25.27A.43.43,0,0,1,35.47,16.76ZM6.1,29.29A19.61,19.61,0,0,1,5.63,25a19,19,0,0,1,4-11.78c.31-.4.65-.77,1-1.14A1.18,1.18,0,0,1,11,11.8a.45.45,0,0,1,.55.1L13.65,14a.64.64,0,0,1,0,.94,14,14,0,0,0-3.32,5.86A15.6,15.6,0,0,0,10,27.46c0,.24.08.47.12.71a.66.66,0,0,1-.51.8l-2.74.8A.56.56,0,0,1,6.1,29.29ZM43,32.18a19.53,19.53,0,0,1-14.87,12c-1,.18-2.09.22-2.73.28A19.54,19.54,0,0,1,11.55,39,19,19,0,0,1,7,32.25c-.22-.54-.11-.76.44-.95l2.61-.89a.59.59,0,0,1,.85.39,15.2,15.2,0,0,0,11.92,9.29,14.85,14.85,0,0,0,12.59-4A15,15,0,0,0,39,30.93a1.68,1.68,0,0,1,.21-.38.52.52,0,0,1,.61-.18l2.86,1C43,31.48,43.15,31.77,43,32.18Zm.94-2.92c-.1.48-.36.63-.83.5L40.4,29a.67.67,0,0,1-.53-.86,18.25,18.25,0,0,0,.32-3.3,14,14,0,0,0-3.32-9.25c-.15-.18-.31-.37-.47-.54a.66.66,0,0,1,0-1L38,12.36,38.4,12a.55.55,0,0,1,.92,0c.59.7,1.2,1.38,1.72,2.13a18.51,18.51,0,0,1,3.21,8.64c.08.75.11,1.5.17,2.25A22.66,22.66,0,0,1,43.92,29.26Z"/><path class="cls-2" d="M29.34,25A4.37,4.37,0,1,0,25,29.41,4.36,4.36,0,0,0,29.34,25ZM25.7,27.86A2.89,2.89,0,0,1,22.29,26a2.84,2.84,0,0,1,1.6-3.53.41.41,0,0,0,.31-.47,2.83,2.83,0,0,1,0-.42h1.44c0,.18,0,.35,0,.53a.24.24,0,0,0,.2.26,2.88,2.88,0,0,1,2,2.91A2.92,2.92,0,0,1,25.7,27.86Z"/><polygon class="cls-3" points="37.86 35.45 37.87 35.44 37.86 35.45 37.86 35.45"/></svg>